<svg xmlns="http://www.w3.org/2000/svg" xmlns:xlink="http://www.w3.org/1999/xlink" version="1.1" x="0px" y="0px" viewBox="0 0 100 125" enable-background="new 0 0 100 100" xml:space="preserve"><path fill="none" d="M50,25c-13.8,0-25,11.2-25,25s11.2,25,25,25s25-11.2,25-25c0-4.5-1.2-8.8-3.3-12.5L50,50V25z"/><g><path fill="#fff" d="M80.3,32.5l-8.7,5C73.8,41.2,75,45.5,75,50c0,13.8-11.2,25-25,25S25,63.8,25,50c0-13.3,10.4-24.2,23.5-25v-3.5V15   C29.9,15.8,15,31.2,15,50c0,19.3,15.7,35,35,35s35-15.7,35-35C85,43.6,83.3,37.7,80.3,32.5z"/><g><path fill="#fff" d="M48.5,23.3c0,1,0,3.5,0,5.7v2.7c0,2.2,1.6,3.1,3.5,2l5.4-3.1c1.9-1.1,5-2.9,6.9-4l5.4-3.1c1.9-1.1,1.9-2.9,0-4l-5.4-3.1    c-1.9-1.1-5-2.9-6.9-4L52,9.4c-1.9-1.1-3.5-0.3-3.5,1.8s0,5.3,0,7.1S48.5,22.4,48.5,23.3z"/></g></g></svg>