<svg xmlns="http://www.w3.org/2000/svg" xmlns:xlink="http://www.w3.org/1999/xlink" viewBox="0 0 24 30" version="1.1" x="0px" y="0px"><g stroke="none" stroke-width="1" fill="none" fill-rule="evenodd"><g transform="translate(-340.000000, -445.000000)" fill="#000000"><g transform="translate(340.000000, 445.000000)"><path d="M17,8 L10,8 C9.447,8 9,7.552 9,7 C9,6.448 9.447,6 10,6 L17,6 C17.553,6 18,6.448 18,7 C18,7.552 17.553,8 17,8 M17,12 L7,12 C6.447,12 6,11.552 6,11 C6,10.448 6.447,10 7,10 L17,10 C17.553,10 18,10.448 18,11 C18,11.552 17.553,12 17,12 M18.049,0 L5.951,0 C2.67,0 0,2.67 0,5.952 L0,12.048 C0,15.33 2.67,18 5.951,18 L9.74,18 C10.575,18.482 13.745,20.462 15.09,23.415 C15.255,23.777 15.614,24 16,24 C16.07,24 16.142,23.993 16.212,23.977 C16.672,23.877 17,23.471 17,23 L17,18 L18.049,18 C21.33,18 24,15.33 24,12.048 L24,5.952 C24,2.67 21.33,0 18.049,0"/></g></g></g></svg>