<?xml version="1.0" encoding="UTF-8" standalone="no"?>
<svg
   xmlns:dc="http://purl.org/dc/elements/1.1/"
   xmlns:cc="http://creativecommons.org/ns#"
   xmlns:rdf="http://www.w3.org/1999/02/22-rdf-syntax-ns#"
   xmlns:svg="http://www.w3.org/2000/svg"
   xmlns="http://www.w3.org/2000/svg"
   id="svg3743"
   version="1.1"
   viewBox="0 0 20.981459 22.516041"
   height="22.516041mm"
   width="20.981459mm">
  
  <g
     transform="translate(258.44311,210.91874)"
     id="layer1">
    <g
       id="g10"
       transform="matrix(0.26458333,0,0,0.26458333,-261.45936,-212.63853)">
      <path
         style="fill:#CA385E"
         id="path2"
         d="M 65.1,17.8 V 6.5 H 35.8 V 17.8 H 11.4 v 6.1 h 7.3 l 5.2,67.7 h 53.3 l 5.2,-67.7 h 8.3 v -6.1 z m -6,-5.3 v 5.2 H 41.9 V 12.5 Z M 29.4,85.4 24.7,23.8 h 51.5 l -4.8,61.6 z" />
      <rect
         style="fill:#CA385E"
         id="rect4"
         height="44.299999"
         width="6.0999999"
         y="32.599998"
         x="47.400002" />
      <rect
         style="fill:#CA385E"
         id="rect6"
         height="44.400002"
         width="6.0999999"
         transform="matrix(-0.9985,-0.05421369,0.05421369,-0.9985,122.6497,112.7788)"
         y="32.5"
         x="59.799999" />
      <rect
         style="fill:#CA385E"
         id="rect8"
         height="6.0999999"
         width="44.400002"
         transform="matrix(-0.05409003,-0.9985,0.9985,-0.05409003,-14.5815,95.6577)"
         y="51.700001"
         x="15.8" />
    </g>
  </g>
</svg>
