<svg xmlns="http://www.w3.org/2000/svg" data-name="Layer 1" viewBox="0 0 64 80" x="0px" y="0px"><title>Artboard 124</title><path fill="#222" d="M8,25a1,1,0,0,1-1-1V17a1,1,0,0,1,1-1H40.26L33.41,8.68a1,1,0,0,1-.19-1.08,1,1,0,0,1,.91-.6h9.92a1,1,0,0,1,.73.32l11.58,12.5a1,1,0,0,1,0,1.36L44.78,33.68a1,1,0,0,1-.73.32H34.13a1,1,0,0,1-.91-.6,1,1,0,0,1,.19-1.08L40.26,25Z"/><path fill="#222" d="M57,40v7a1,1,0,0,1-1,1H23.74l6.85,7.32a1,1,0,0,1,.19,1.08,1,1,0,0,1-.91.6H20a1,1,0,0,1-.73-.32L7.64,44.18a1,1,0,0,1,0-1.36l11.58-12.5A1,1,0,0,1,20,30h9.92a1,1,0,0,1,.91.6,1,1,0,0,1-.19,1.08L23.74,39H56A1,1,0,0,1,57,40Z"/></svg>